<?xml version="1.0" encoding="UTF-8"?>
<svg width="58px" height="60px" viewBox="0 0 58 60" version="1.1" xmlns="http://www.w3.org/2000/svg" xmlns:xlink="http://www.w3.org/1999/xlink">
    <title>icon/calendar</title>
    <g id="home" stroke="none" stroke-width="1" fill="none" fill-rule="evenodd">
        <g id="Desktop-HD" transform="translate(-182.000000, -3899.000000)" fill="#68B1F9">
            <g id="Group-5" transform="translate(182.000000, 3899.000000)">
                <path d="M50.0680637,56.0953448 L7.46013451,56.0953448 C5.32747965,56.0953448 3.59312566,54.347069 3.59312566,52.1984483 L3.59312566,22.9287931 L53.9350726,22.9287931 L53.9350726,52.1984483 C53.9350726,54.347069 52.2002053,56.0953448 50.0680637,56.0953448 M7.46013451,8.30068966 L15.5770549,8.30068966 L15.5770549,10.575 L19.1699752,10.575 L19.1699752,8.30068966 L37.731515,8.30068966 L37.731515,10.575 L41.3244354,10.575 L41.3244354,8.30068966 L50.0680637,8.30068966 C52.2002053,8.30068966 53.9350726,10.0489655 53.9350726,12.1981034 L53.9350726,19.3081034 L3.59312566,19.3081034 L3.59312566,12.1981034 C3.59312566,10.0489655 5.32747965,8.30068966 7.46013451,8.30068966 M50.0680637,4.68 L41.3244354,4.68 L41.3244354,-7.35044209e-15 L37.731515,-7.35044209e-15 L37.731515,4.68 L19.1699752,4.68 L19.1699752,-7.35044209e-15 L15.5770549,-7.35044209e-15 L15.5770549,4.68 L7.46013451,4.68 C3.34675398,4.68 0.000205309735,8.05241379 0.000205309735,12.1981034 L0.000205309735,52.1984483 C0.000205309735,56.3436207 3.34675398,59.7160345 7.46013451,59.7160345 L50.0680637,59.7160345 C54.1814442,59.7160345 57.5279929,56.3436207 57.5279929,52.1984483 L57.5279929,12.1981034 C57.5279929,8.05241379 54.1814442,4.68 50.0680637,4.68" id="Fill-1"></path>
                <path d="M36.3758035,36.6634138 C36.0206177,37.7123793 32.6550779,41.3066897 29.3347062,44.4499655 C26.0143345,41.3066897 22.6487947,37.7123793 22.2936088,36.663931 C22.0539097,35.9553103 22.1021575,35.1944483 22.4296265,34.5225517 C22.7570956,33.8511724 23.324777,33.3478966 24.0279628,33.1058276 C24.3246354,33.003931 24.6264407,32.9553103 24.9236265,32.9553103 C26.0810602,32.9553103 27.164069,33.6892759 27.5577504,34.8525517 C27.8179805,35.6222069 28.5324584,36.1394483 29.3347062,36.1394483 C30.1374673,36.1394483 30.8514319,35.6222069 31.1116619,34.853069 C31.3513611,34.1449655 31.850777,33.5728966 32.5175204,33.2428966 C33.1842637,32.9123793 33.938777,32.8632414 34.6419628,33.1058276 C36.0929894,33.6049655 36.8711133,35.2011724 36.3758035,36.6634138 M35.8019628,29.6791034 C34.1907947,29.1246207 32.4615735,29.2368621 30.9330425,29.993069 C30.337131,30.2884138 29.7992195,30.668069 29.3321398,31.1175517 C27.6660513,29.5172069 25.1925823,28.878931 22.8674496,29.6791034 C21.2557681,30.233069 19.955131,31.3865172 19.2047239,32.9263448 C18.4538035,34.4666897 18.3434496,36.2087586 18.8931664,37.8328966 C19.7898566,40.4796207 26.187308,46.4791034 28.1269717,48.2547931 L29.3347062,49.3606552 L30.542954,48.2547931 C32.4826177,46.4791034 38.8795558,40.4796207 39.776246,37.8328966 C40.9110956,34.4806552 39.1284938,30.8232414 35.8019628,29.6791034" id="Fill-3"></path>
            </g>
        </g>
    </g>
</svg>