<?xml version="1.0" encoding="UTF-8"?>
<svg width="72px" height="61px" viewBox="0 0 72 61" version="1.1" xmlns="http://www.w3.org/2000/svg" xmlns:xlink="http://www.w3.org/1999/xlink">
    <title>icon/emergency-phone</title>
    <defs>
        <polygon id="path-1" points="0.203671233 0.425179839 37.495726 0.425179839 37.495726 60.5080645 0.203671233 60.5080645"></polygon>
    </defs>
    <g id="home" stroke="none" stroke-width="1" fill="none" fill-rule="evenodd">
        <g id="Desktop-HD" transform="translate(-761.000000, -3901.000000)">
            <g id="Group-11" transform="translate(761.000000, 3901.000000)">
                <g id="Group-3" transform="translate(16.767123, 0.066903)">
                    <mask id="mask-2" fill="white">
                        <use xlink:href="#path-1"></use>
                    </mask>
                    <g id="Clip-2"></g>
                    <path d="M7.36569863,3.86872823 C5.32010959,3.86872823 3.65572603,5.52901048 3.65572603,7.56955887 L3.65572603,53.3633411 C3.65572603,55.4043815 5.32010959,57.0646637 7.36569863,57.0646637 L30.3336986,57.0646637 C32.3792877,57.0646637 34.0436712,55.4043815 34.0436712,53.3633411 L34.0436712,7.56955887 C34.0436712,5.52901048 32.3792877,3.86872823 30.3336986,3.86872823 L7.36569863,3.86872823 Z M30.3336986,60.5082121 L7.36569863,60.5082121 C3.41654795,60.5082121 0.203671233,57.3027605 0.203671233,53.3633411 L0.203671233,7.56955887 C0.203671233,3.63063145 3.41654795,0.425179839 7.36569863,0.425179839 L30.3336986,0.425179839 C34.2828493,0.425179839 37.495726,3.63063145 37.495726,7.56955887 L37.495726,53.3633411 C37.495726,57.3027605 34.2828493,60.5082121 30.3336986,60.5082121 L30.3336986,60.5082121 Z" id="Fill-1" fill="#FF5353" mask="url(#mask-2)"></path>
                </g>
                <polygon id="Fill-4" fill="#FF5353" points="30.3060822 9.46483871 40.9270685 9.46483871 40.9270685 6.02129032 30.3060822 6.02129032"></polygon>
                <path d="M34.6874301,36.6372887 L36.5461151,36.6372887 L36.5461151,31.4606516 L41.7355397,31.4606516 L41.7355397,29.6065468 L36.5461151,29.6065468 L36.5461151,24.4299097 L34.6874301,24.4299097 L34.6874301,29.6065468 L29.4980055,29.6065468 L29.4980055,31.4606516 L34.6874301,31.4606516 L34.6874301,36.6372887 Z M39.9981699,40.0808371 L31.2353753,40.0808371 L31.2353753,34.9042 L26.0459507,34.9042 L26.0459507,26.1629984 L31.2353753,26.1629984 L31.2353753,20.9863613 L39.9981699,20.9863613 L39.9981699,26.1629984 L45.1875945,26.1629984 L45.1875945,34.9042 L39.9981699,34.9042 L39.9981699,40.0808371 Z" id="Fill-6" fill="#FF5353"></path>
                <path d="M11.4052932,46.1565355 C8.2747726,41.5352935 6.62025205,36.1328581 6.62025205,30.5336484 C6.62025205,25.1164548 8.17712877,19.8616 11.1217315,15.3372694 L14.0170192,17.2125274 C11.4363616,21.1775274 10.0723068,25.7835194 10.0723068,30.5336484 C10.0723068,35.4436565 11.5221699,40.1790274 14.2655671,44.2286403 L11.4052932,46.1565355 Z" id="Fill-7" fill="#FF5353"></path>
                <path d="M59.2159068,47.4517032 L56.4700438,45.3649129 C59.7480164,41.0732677 61.4804548,35.9443484 61.4804548,30.53355 C61.4804548,25.2723 59.8338247,20.2589855 56.7190849,16.0337516 L59.4999616,13.9936952 C63.0540986,18.813679 64.9325096,24.5334129 64.9325096,30.53355 C64.9325096,36.7048806 62.9554685,42.5554694 59.2159068,47.4517032" id="Fill-8" fill="#FF5353"></path>
                <path d="M5.90843836,49.7821492 C2.04312329,44.0747137 0,37.4035766 0,30.4889315 C0,23.7995927 1.92230137,17.3099798 5.55879452,11.7230685 L8.45408219,13.5983266 C5.18153425,18.6259073 3.45205479,24.4666573 3.45205479,30.4889315 C3.45205479,36.7138831 5.29052055,42.7189395 8.76920548,47.854746 L5.90843836,49.7821492 Z" id="Fill-9" fill="#FF5353"></path>
                <path d="M64.4934082,51.3814315 L61.7475452,49.2946411 C65.9038192,43.8528508 68.1003123,37.3504476 68.1003123,30.4889315 C68.1003123,23.8177944 66.0128055,17.4605121 62.0631616,12.1043185 L64.8440384,10.0637702 C69.2325863,16.0156976 71.5523671,23.0789073 71.5523671,30.4889315 C71.5523671,38.1104879 69.1117644,45.3350524 64.4934082,51.3814315" id="Fill-10" fill="#FF5353"></path>
            </g>
        </g>
    </g>
</svg>