<?xml version="1.0" encoding="UTF-8"?>
<svg width="54px" height="60px" viewBox="0 0 54 60" version="1.1" xmlns="http://www.w3.org/2000/svg" xmlns:xlink="http://www.w3.org/1999/xlink">
    <title>icon/white-logo</title>
    <defs>
        <polygon id="path-1" points="0 0.510149015 2.39981914 0.510149015 2.39981914 2.44152241 0 2.44152241"></polygon>
        <polygon id="path-3" points="0.192066881 0.281398297 2.55076971 0.281398297 2.55076971 2.11329379 0.192066881 2.11329379"></polygon>
        <polygon id="path-5" points="0.145683333 0.291993142 22.9037824 0.291993142 22.9037824 35.5662651 0.145683333 35.5662651"></polygon>
    </defs>
    <g id="home" stroke="none" stroke-width="1" fill="none" fill-rule="evenodd">
        <g id="Tablet" transform="translate(-31.000000, -3179.000000)">
            <g id="Group-28" transform="translate(31.000000, 3179.000000)">
                <path d="M21.5265545,6.50965741 C23.1249818,6.4086286 24.3696376,4.88082556 24.3061137,3.09735778 C24.2431062,1.31388999 22.8956759,-0.0494834992 21.2972486,0.0515453117 C19.6983049,0.152574123 18.4536491,1.67986171 18.517173,3.46332949 C18.5801805,5.24679728 19.9276108,6.61068622 21.5265545,6.50965741" id="Fill-1" fill="#FFFFFF"></path>
                <path d="M14.4966766,5.06597632 C15.7521779,4.82371336 16.4907081,3.50209157 16.1462328,2.11397632 C15.8017576,0.725861079 14.5049398,-0.203500891 13.2494385,0.0387620744 C11.9944536,0.280509586 11.2559234,1.60213138 11.6003987,2.99024662 C11.9443575,4.37887732 13.2411752,5.30772383 14.4966766,5.06597632" id="Fill-3" fill="#FFFFFF"></path>
                <path d="M7.64254815,6.01054416 C8.80043956,6.18940639 9.6970049,5.32602242 9.64484298,4.0827495 C9.59268106,2.83896113 8.6119336,1.68589251 7.45404219,1.50703028 C6.29615077,1.3286835 5.39958543,2.19155202 5.4512309,3.43482493 C5.50339282,4.67861331 6.48465673,5.83168193 7.64254815,6.01054416" id="Fill-5" fill="#FFFFFF"></path>
                <path d="M4.52011474,8.18111723 C5.20235138,7.83421729 5.28756641,6.95382336 4.71017006,6.21517905 C4.13277372,5.47653473 3.11122634,5.15953106 2.4289897,5.50643101 C1.74675305,5.85333096 1.66153803,6.73372488 2.23893437,7.4723692 C2.81633072,8.21101351 3.83787809,8.52801718 4.52011474,8.18111723" id="Fill-7" fill="#FFFFFF"></path>
                <g id="Group-11" transform="translate(0.000000, 8.731776)">
                    <mask id="mask-2" fill="white">
                        <use xlink:href="#path-1"></use>
                    </mask>
                    <g id="Clip-10"></g>
                    <path d="M1.94491672,0.925702252 C1.4253633,0.487567103 0.670822997,0.378291042 0.259208609,0.682408381 C-0.152405779,0.98652572 -0.0646084817,1.58805951 0.454944936,2.02619466 C0.974498355,2.46432981 1.72903866,2.57309041 2.14065304,2.26948853 C2.55175098,1.96588664 2.46447014,1.3638374 1.94491672,0.925702252" id="Fill-9" fill="#FFFFFF" mask="url(#mask-2)"></path>
                </g>
                <path d="M26.3125918,36.7953115 C26.913745,33.1190998 23.5340655,30.6810066 19.955551,28.0991019 C19.4902253,27.7630265 19.0202516,27.4238584 18.5564752,27.0800511 C18.5373664,27.0661339 18.4480198,27.0078877 18.2987643,26.9125289 C13.1285364,23.6177525 9.64969766,20.7585341 8.5036847,18.8611512 C7.8596657,17.796225 7.91699217,16.34574 8.65707174,14.9813356 C9.44569805,13.5267269 11.2331477,11.9391313 13.8846261,11.8448034 C16.4880742,11.7576918 18.3514427,12.4947897 19.2986206,13.9926965 C20.3227503,15.6127656 20.1275304,17.8596258 19.4055267,19.242071 C19.1411019,19.748246 19.2779624,20.3162753 19.7541337,20.6899788 C20.3098389,21.1270831 21.260632,21.2497609 21.887608,20.7008034 C22.5156169,20.1518458 23.6807387,18.9193974 24.4301144,16.8369668 C24.7823365,15.8586368 24.8479263,14.0447573 23.8738927,12.1545907 C23.1560207,10.7613209 21.6355781,8.91290602 18.4691944,8.01807941 C16.6962054,7.51654353 14.4687364,7.06139843 11.3942816,7.48922452 C8.96178001,7.82684631 5.50463231,8.76342462 3.5761905,12.9844702 C2.03870489,16.3488327 3.53280831,20.4719422 7.2931149,23.2450799 C9.05680767,24.5445372 14.0710663,27.7480784 14.5544678,28.0516803 C17.9935396,30.2088515 21.5818668,33.5567195 20.3790438,35.8948149 C19.7618805,37.0942743 18.0529319,37.8633303 16.4069908,37.6757054 C13.9930816,37.4040616 12.7355144,36.4865551 12.5625021,34.871125 C12.4752213,34.0531009 12.7257018,32.4222072 13.1429972,31.6851093 C13.8959881,30.3557557 13.4998674,29.7114393 13.1967085,29.4454655 C12.661145,28.9753722 11.6721342,29.0810401 10.848389,29.6975221 C10.3448457,30.0743183 9.65899384,30.8928578 9.34292357,31.7995399 C8.16179169,35.1845205 8.3167281,37.8793094 9.80411761,39.8081349 C11.6540583,42.2075692 15.2227602,42.8353911 17.5628164,42.8353911 C17.8788867,42.8353911 18.1727494,42.8235357 18.4366578,42.803433 C20.0743356,42.6786933 25.4821326,41.8771638 26.3125918,36.7953115" id="Fill-12" fill="#FFFFFF"></path>
                <path d="M32.0256136,22.6475151 C33.5661979,22.841841 34.9523623,21.604238 35.1222759,19.8821092 C35.291673,18.1604958 34.1802625,16.6069201 32.6391617,16.4125942 C31.0990938,16.2182684 29.712413,17.4569023 29.5430159,19.1785157 C29.3736187,20.8996136 30.4850292,22.4531893 32.0256136,22.6475151" id="Fill-14" fill="#FFFFFF"></path>
                <path d="M38.9148092,21.6754737 C40.1145335,21.9857764 41.4258119,21.1651751 41.8431073,19.8425224 C42.2604027,18.5203851 41.6261964,17.197217 40.4264721,16.8869142 C39.2267479,16.5766114 37.914953,17.3972128 37.4976576,18.7198655 C37.0803622,20.0420027 37.715085,21.3651709 38.9148092,21.6754737" id="Fill-16" fill="#FFFFFF"></path>
                <path d="M45.4890192,23.0038994 C46.620055,22.9013243 47.6395366,21.8446454 47.765035,20.6446705 C47.89105,19.4446957 47.0760845,18.5550236 45.9445323,18.6581142 C44.8134965,18.7617203 43.7945314,19.8173683 43.6685164,21.0173431 C43.5425015,22.2178334 44.3579834,23.10699 45.4890192,23.0038994" id="Fill-18" fill="#FFFFFF"></path>
                <path d="M48.3779118,25.2927174 C49.0172827,25.6695137 50.0243694,25.4246734 50.6281049,24.7453062 C51.2318404,24.0654236 51.202919,23.2087405 50.5635481,22.8319443 C49.9241772,22.4541171 48.9170905,22.6999883 48.313355,23.3793555 C47.7101359,24.0587227 47.7390574,24.9159212 48.3779118,25.2927174" id="Fill-20" fill="#FFFFFF"></path>
                <g id="Group-24" transform="translate(50.096105, 26.257182)">
                    <mask id="mask-4" fill="white">
                        <use xlink:href="#path-3"></use>
                    </mask>
                    <g id="Clip-23"></g>
                    <path d="M2.32972711,0.48627847 C1.95013291,0.167728444 1.21315207,0.227005553 0.68378601,0.619780828 C0.154936407,1.0125561 0.0335695548,1.58934814 0.413163752,1.90841362 C0.792757949,2.22696365 1.52973879,2.16768654 2.05910485,1.77491126 C2.58795445,1.38213599 2.7093213,0.80534395 2.32972711,0.48627847" id="Fill-22" fill="#FFFFFF" mask="url(#mask-4)"></path>
                </g>
                <g id="Group-27" transform="translate(26.855644, 23.679916)">
                    <mask id="mask-6" fill="white">
                        <use xlink:href="#path-5"></use>
                    </mask>
                    <g id="Clip-26"></g>
                    <path d="M13.2267145,0.660450079 C16.1586278,1.35682724 18.0106343,2.55061666 19.4360492,3.62739822 C21.9852696,5.5515847 22.7072732,7.75978586 22.8647919,9.27367166 C23.0780877,11.3282678 22.3772587,12.9483369 21.7115486,13.7112075 C20.2980121,15.3307612 18.8080403,16.0359011 18.0457532,16.3116685 C17.2783015,16.5889823 16.4555892,16.1405381 16.1033671,15.5457052 C15.8007247,15.0343757 15.8787093,14.4642845 16.3027186,14.0947047 C17.4389189,13.1034883 18.4052057,11.1483746 18.0524671,9.33088696 C17.7265842,7.6515407 16.3016857,6.32579529 13.9301258,5.50055485 C11.5084697,4.65624264 9.33987649,5.4603495 8.11794469,6.49331755 C6.97244819,7.46185395 6.41106194,8.74687858 6.615578,9.92881257 C6.98174437,12.0432013 9.11418579,15.8462144 12.6203967,20.6378665 C12.7216218,20.776008 12.782047,20.8600268 12.7939255,20.8790986 C13.0914034,21.3533155 13.3961116,21.8239241 13.6977212,22.2904092 C16.0222837,25.8841483 18.2177326,29.2789226 16.3729565,32.396383 C13.8232197,36.7055711 8.64679429,35.5267298 7.12118714,35.062822 C6.36303165,34.8329299 5.38021838,34.4288147 4.39224056,33.8525381 C2.68484135,32.8556518 0.964014324,31.3422814 0.370091431,29.3129425 C-0.2940693,27.0423715 0.517797472,24.5491248 2.78193483,21.902273 C3.389802,21.1924941 4.30134453,20.6925046 4.89113579,20.528075 C5.87601488,20.2543694 6.7922055,20.5038487 7.11963777,21.1337324 C7.30142983,21.484756 7.43415868,22.2136067 6.27626727,23.1574014 C5.64206091,23.6744008 4.8431055,25.0547843 4.63394135,25.822294 C4.22232696,27.334118 5.02593046,28.5944008 7.10879223,29.6887078 C8.50321989,30.4185894 10.3469631,30.3263233 11.3070524,29.4778875 C13.2101879,27.7964794 11.1515995,23.5197649 8.81102688,20.3688 C8.4655187,19.9033458 5.09926703,15.2967413 3.94757307,13.4740991 C1.52436766,9.64222064 1.63075733,5.38509335 4.21199787,2.88102211 C7.44810296,-0.258602829 10.9062836,0.110461603 13.2267145,0.660450079" id="Fill-25" fill="#FFFFFF" mask="url(#mask-6)"></path>
                </g>
            </g>
        </g>
    </g>
</svg>