<?xml version="1.0" encoding="UTF-8"?>
<svg width="241px" height="74px" viewBox="0 0 241 74" version="1.1" xmlns="http://www.w3.org/2000/svg" xmlns:xlink="http://www.w3.org/1999/xlink">
    <title>Group 5</title>
    <defs>
        <polygon id="path-1" points="0 0.629183786 2.9660686 0.629183786 2.9660686 3.01121097 0 3.01121097"></polygon>
        <polygon id="path-3" points="0.237386033 0.347057899 3.15263672 0.347057899 3.15263672 2.60639568 0.237386033 2.60639568"></polygon>
        <polygon id="path-5" points="0.180058052 0.360124875 28.3080456 0.360124875 28.3080456 43.8650602 0.180058052 43.8650602"></polygon>
    </defs>
    <g id="home" stroke="none" stroke-width="1" fill="none" fill-rule="evenodd">
        <g id="Desktop-HD" transform="translate(-149.000000, -4239.000000)">
            <g id="Group-5" transform="translate(149.000000, 4239.000000)">
                <g id="Group-10" transform="translate(80.000000, 13.000000)" fill="#FFFFFF" font-weight="bold">
                    <text id="Pediatrics" font-family="Gotham-Bold, Gotham" font-size="11" letter-spacing="7.62">
                        <tspan x="0" y="47">PEDIATRICS</tspan>
                    </text>
                    <text id="Step-By-Step" font-family="MenoBanner-Bold, Meno Banner" font-size="24.5" line-spacing="40" letter-spacing="0.510416667">
                        <tspan x="0" y="28">Step By Step</tspan>
                    </text>
                </g>
                <g id="Group-28">
                    <path d="M26.6058539,8.02857748 C28.5814382,7.90397528 30.1197768,6.01968486 30.0412641,3.82007459 C29.9633897,1.62046433 28.2980264,-0.061029649 26.3224421,0.0635725511 C24.3462196,0.188174751 22.8078809,2.07182944 22.8863936,4.27143971 C22.964268,6.47104997 24.6296313,8.15317968 26.6058539,8.02857748" id="Fill-1" fill="#FFFFFF"></path>
                    <path d="M17.9172407,6.24803746 C19.4689839,5.94924647 20.3817741,4.31924627 19.9560181,2.60723746 C19.5302622,0.895228664 17.9274537,-0.250984432 16.3757105,0.0478065584 C14.8246056,0.345961823 13.9118154,1.97596203 14.3375714,3.68797083 C14.762689,5.40061536 16.3654975,6.54619273 17.9172407,6.24803746" id="Fill-3" fill="#FFFFFF"></path>
                    <path d="M9.44584603,7.41300446 C10.8769478,7.63360122 11.9850622,6.56876098 11.9205924,5.03539105 C11.8561227,3.5013854 10.6439629,2.07926743 9.21286113,1.85867068 C7.78175938,1.63870965 6.67364491,2.70291415 6.73747639,4.23628409 C6.80194618,5.77028974 8.01474428,7.19240771 9.44584603,7.41300446" id="Fill-5" fill="#FFFFFF"></path>
                    <path d="M5.58665866,10.0900446 C6.4298725,9.66220132 6.53519444,8.57638215 5.82155851,7.66538749 C5.10792258,6.75439283 3.84533593,6.36342164 3.0021221,6.79126491 C2.15890827,7.21910818 2.05358633,8.30492735 2.76722226,9.21592201 C3.48085819,10.1269167 4.74344483,10.5178879 5.58665866,10.0900446" id="Fill-7" fill="#FFFFFF"></path>
                    <g id="Group-11" transform="translate(0.000000, 10.769190)">
                        <mask id="mask-2" fill="white">
                            <use xlink:href="#path-1"></use>
                        </mask>
                        <g id="Clip-10"></g>
                        <path d="M2.40382965,1.14169944 C1.76168498,0.601332761 0.829107075,0.466558952 0.320370191,0.841637004 C-0.188366693,1.21671506 -0.0798531797,1.95860673 0.562291494,2.49897341 C1.20443617,3.03934009 2.13701407,3.17347818 2.64575095,2.79903585 C3.15384952,2.42459353 3.04597432,1.68206613 2.40382965,1.14169944" id="Fill-9" fill="#FFFFFF" mask="url(#mask-2)"></path>
                    </g>
                    <path d="M32.5211808,45.3808841 C33.2641793,40.8468898 29.0870473,37.8399081 24.6641641,34.6555591 C24.0890425,34.241066 23.5081761,33.8227586 22.9349694,33.3987297 C22.9113517,33.3815651 22.8009233,33.3097282 22.6164503,33.1921189 C16.226281,29.1285615 11.9265926,25.6021921 10.5101721,23.2620865 C9.71419356,21.9486775 9.7850465,20.159746 10.6997516,18.4769805 C11.6744583,16.6829631 13.8836657,14.7249286 17.1607738,14.6085908 C20.3785187,14.5011532 22.6815584,15.4102407 23.8522277,17.257659 C25.118006,19.2557443 24.876723,22.0268718 23.9843589,23.7318876 C23.6575417,24.3561701 23.8266952,25.0567396 24.4152214,25.5176406 C25.1020481,26.0567358 26.2771856,26.2080385 27.0520998,25.5309908 C27.8282905,24.8539431 29.2683287,23.3339234 30.1945234,20.7655924 C30.6298541,19.5589854 30.7109201,17.3218673 29.5070584,14.9906618 C28.6198009,13.2722958 26.7406021,10.9925841 22.8270942,9.88896461 C20.6357595,9.27040369 17.8827079,8.70905806 14.08282,9.23671024 C11.0763573,9.65311045 6.80347814,10.8082237 4.42001073,16.0141799 C2.51974762,20.1635603 4.36639229,25.2487287 9.01396224,28.6689319 C11.1938072,30.2715959 17.3912055,34.22263 17.9886681,34.5970723 C22.2392063,37.2575836 26.6742174,41.3866208 25.1875823,44.2702717 C24.4247961,45.7496049 22.3126125,46.6981074 20.2783033,46.4667033 C17.29482,46.131676 15.7405234,45.0000846 15.526688,43.0077208 C15.4188128,41.9988244 15.7283955,39.9873889 16.2441538,39.0783014 C17.1748168,37.4387653 16.6852293,36.6441085 16.3105386,36.3160741 C15.6486061,35.7362924 14.4262333,35.8666162 13.4081212,36.6269439 C12.7857643,37.0916592 11.9380823,38.1011913 11.5474336,39.2194325 C10.0876077,43.3942419 10.2791021,46.7178149 12.1174487,49.0966998 C14.4038923,52.056002 18.8146475,52.8303157 21.7068517,52.8303157 C22.0975004,52.8303157 22.4607015,52.815694 22.7868804,52.7909007 C24.8109766,52.6370551 31.4947707,51.648502 32.5211808,45.3808841" id="Fill-12" fill="#FFFFFF"></path>
                    <path d="M39.582219,27.9319353 C41.486312,28.1716039 43.1995489,26.6452269 43.4095545,24.521268 C43.6189217,22.3979448 42.2452683,20.4818681 40.340537,20.2421996 C38.4370823,20.002531 36.7232071,21.5301794 36.5138398,23.6535027 C36.3044726,25.7761901 37.678126,27.6922668 39.582219,27.9319353" id="Fill-14" fill="#FFFFFF"></path>
                    <path d="M48.0969552,26.7330842 C49.5797605,27.1157909 51.2004417,26.1037159 51.7162001,24.4724443 C52.2319584,22.8418083 51.4481079,21.2099009 49.9653026,20.8271942 C48.4824974,20.4444874 46.8611778,21.4565624 46.3454195,23.0878341 C45.8296611,24.71847 46.61415,26.3503774 48.0969552,26.7330842" id="Fill-16" fill="#FFFFFF"></path>
                    <path d="M56.2223833,28.371476 C57.6202927,28.2449666 58.8803261,26.9417293 59.0354366,25.4617603 C59.1911854,23.9817913 58.1839246,22.8845291 56.7853769,23.0116742 C55.3874676,23.139455 54.1280725,24.4414208 53.9723237,25.9213898 C53.8165749,27.4019946 54.8244739,28.4986211 56.2223833,28.371476" id="Fill-18" fill="#FFFFFF"></path>
                    <path d="M59.7929247,31.1943515 C60.5831584,31.6590669 61.8278723,31.3570972 62.5740622,30.519211 C63.3202522,29.6806891 63.2845066,28.6241133 62.4942729,28.1593979 C61.7040392,27.6934111 60.4593254,27.9966522 59.7131354,28.8345384 C58.9675837,29.6724246 59.0033293,30.7296362 59.7929247,31.1943515" id="Fill-20" fill="#FFFFFF"></path>
                    <g id="Group-24" transform="translate(61.916534, 32.383858)">
                        <mask id="mask-4" fill="white">
                            <use xlink:href="#path-3"></use>
                        </mask>
                        <g id="Clip-23"></g>
                        <path d="M2.879438,0.599743447 C2.41027663,0.206865081 1.49940143,0.279973515 0.845128776,0.764396354 C0.191494436,1.24881919 0.041490461,1.96019604 0.510651828,2.35371013 C0.979813196,2.7465885 1.89068839,2.67348006 2.54496105,2.18905722 C3.19859539,1.70463438 3.34859936,0.993257538 2.879438,0.599743447" id="Fill-22" fill="#FFFFFF" mask="url(#mask-4)"></path>
                    </g>
                    <g id="Group-27" transform="translate(33.192369, 29.205230)">
                        <mask id="mask-6" fill="white">
                            <use xlink:href="#path-5"></use>
                        </mask>
                        <g id="Clip-26"></g>
                        <path d="M16.3476246,0.814555097 C19.9713377,1.67342026 22.2603345,3.14576054 24.0220833,4.47379114 C27.1728051,6.84695447 28.0651692,9.57040256 28.2598552,11.4375284 C28.5234792,13.9715303 27.657286,15.9696155 26.8344983,16.9104893 C25.0874307,18.9079389 23.2458925,19.7776114 22.3037399,20.1177245 C21.3552041,20.4597448 20.3383687,19.9066636 19.903038,19.1730364 C19.5289855,18.5423967 19.6253711,17.8392843 20.1494275,17.3834691 C21.55372,16.1609689 22.748007,13.7496621 22.312038,11.5080939 C21.9092614,9.4369002 20.1481509,7.80181419 17.2170094,6.78401764 C14.2239514,5.74269926 11.5436676,6.73443105 10.0334148,8.00842498 C8.61763259,9.20295321 7.92378442,10.7878169 8.17655707,12.2455355 C8.62912226,14.8532816 11.264724,19.5436644 15.5982431,25.4533687 C15.7233528,25.6237432 15.7980356,25.7273664 15.8127169,25.7508883 C16.1803862,26.3357557 16.5569919,26.9161731 16.9297677,27.4915047 C19.8028226,31.923783 22.5162987,36.1106712 20.2362383,39.9555391 C17.0848782,45.2702043 10.6870491,43.8163001 8.80146725,43.2441471 C7.86442114,42.9606136 6.64970811,42.4622048 5.42861192,41.7514636 C3.31834324,40.5219705 1.19147838,38.6554804 0.457416375,36.1526291 C-0.363456439,33.3522582 0.639974404,30.2772539 3.43834642,27.0128034 C4.18964293,26.1374094 5.31626852,25.5207556 6.04522401,25.3179592 C7.2624903,24.9803889 8.39486073,25.2880801 8.79955231,26.0649367 C9.02423911,26.4978657 9.18828601,27.3967816 7.75718426,28.560795 C6.9733337,29.1984277 5.98586073,30.9009006 5.72734324,31.8474959 C5.21860636,33.7120788 6.21182417,35.2664277 8.78614769,36.616073 C10.5095976,37.5162603 12.7883814,37.4024654 13.9750086,36.3560612 C16.3271986,34.2823246 13.7828758,29.00771 10.8900332,25.12152 C10.4630006,24.5474599 6.30246486,18.865981 4.87902289,16.6180556 C1.88404992,11.8920721 2.01554277,6.64161513 5.20584006,3.5532606 C9.20552051,-0.318943489 13.4796763,0.136235977 16.3476246,0.814555097" id="Fill-25" fill="#FFFFFF" mask="url(#mask-6)"></path>
                    </g>
                </g>
            </g>
        </g>
    </g>
</svg>