<?xml version="1.0" encoding="UTF-8"?>
<svg width="73px" height="108px" viewBox="0 0 73 108" version="1.1" xmlns="http://www.w3.org/2000/svg" xmlns:xlink="http://www.w3.org/1999/xlink">
    <title>icon/growth</title>
    <g id="home" stroke="none" stroke-width="1" fill="none" fill-rule="evenodd">
        <g id="Desktop-HD" transform="translate(-919.000000, -1494.000000)" fill="#32A094">
            <g id="icon/growth" transform="translate(919.000000, 1494.000000)">
                <path d="M34.1411478,51.4591243 C29.9617391,51.3498462 19.5652696,50.3951006 13.9442696,43.8575858 C8.34104348,37.343716 8.88187826,26.8306509 9.36685217,22.6467692 C13.5513391,22.7630769 23.9624087,23.7293254 29.5643652,30.2444734 C35.1675913,36.7602604 34.6267565,47.2771598 34.1411478,51.4591243 M37.5473913,5.79110059 C40.3429739,8.40546746 46.5562261,14.9909112 47.5852087,22.6608284 C45.5031217,23.8660828 43.5441826,25.3876686 41.8861304,27.3163314 C39.7246957,29.8297278 38.3116696,32.7508402 37.4052,35.7211598 C36.4987304,32.7508402 35.0850696,29.8297278 32.9242696,27.3163314 C31.2681217,25.3902249 29.3117217,23.8699172 27.2328087,22.6646627 C28.3132087,14.9410651 34.6940435,8.37926627 37.5473913,5.79110059 M60.8667652,43.8575858 C55.2635391,50.3733728 44.8512,51.3396213 40.6686174,51.455929 C40.1842783,47.2701302 39.6440783,36.7583432 45.2460348,30.2444734 C50.8492609,23.7267692 61.2660435,22.7617988 65.446087,22.6467692 C65.9374087,26.8255385 66.4884,37.3207101 60.8667652,43.8575858 M46.4108609,64.8939408 C49.123287,63.1653018 52.5879304,63.0336568 55.3917652,63.3404024 L41.1758087,72.4015385 C42.1000522,69.7181538 43.6997043,66.6225799 46.4108609,64.8939408 M52.5320696,74.6273609 C49.8196435,76.3553609 46.3562696,76.4870059 43.5524348,76.1808994 L57.763313,67.1235976 C56.7863826,69.9028402 55.1416609,72.9632663 52.5320696,74.6273609 M39.1216522,86.8978225 L39.1216522,79.9263905 C40.742887,80.328355 43.151887,80.7788876 45.8167043,80.7788876 C48.7849478,80.7788876 52.0655043,80.2184379 54.9086957,78.4067219 C62.1966348,73.7614438 63.3265478,62.9863669 63.3709826,62.5294438 L63.5398348,60.7937751 L61.9090783,60.2058462 C61.4799652,60.0511953 51.3209043,56.4693018 44.0342348,61.1145799 C41.9178696,62.4636213 40.3232957,64.3302959 39.1216522,66.3100828 L39.1216522,55.9408047 C39.3139913,55.9452781 39.5488609,55.9484734 39.8408609,55.9484734 C43.8876,55.9484734 56.9387304,55.259574 64.2266696,46.7863669 C72.7403739,36.8848757 69.6781826,20.664426 69.5436087,19.9793609 L69.2084435,18.2679763 L67.4786609,18.1791479 C67.0063826,18.1529467 59.3134522,17.8148876 51.7557304,20.6899882 C49.5689043,9.67910059 39.4326957,1.46790533 38.9489913,1.08255621 L37.5918261,5.44889577e-14 L36.2175217,1.06146746 C35.7249304,1.44170414 25.3265565,9.60369231 23.0660957,20.6944615 C15.5039304,17.8148876 7.80147826,18.1535858 7.33173913,18.1791479 L5.60132174,18.2679763 L5.26615652,19.9793609 C5.13158261,20.664426 2.07002609,36.8848757 10.5843652,46.7863669 C17.7085304,55.0697751 30.3349913,55.9133254 34.6781739,55.9465562 L34.6781739,86.8869586 C21.102713,87.4831953 8.55623478,93.8711716 0,104.628355 L3.46781739,107.424213 C11.1766174,97.7336095 22.4598783,91.9623195 34.6781739,91.368 L34.6781739,95.904 C33.8389913,95.747432 33.0150435,95.5097041 32.2260087,95.1735621 L30.4955913,99.2941775 C32.5249913,100.157538 34.6800783,100.595929 36.899913,100.595929 C38.9851739,100.595929 41.0177478,100.207385 42.9417739,99.4424379 L41.309113,95.2822012 C40.6013304,95.5640237 39.8675217,95.771716 39.1216522,95.9116686 L39.1216522,91.3750296 C50.9495565,92.0262249 61.9452609,97.571929 69.5766174,106.817751 L72.9936522,103.957988 C64.5154957,93.6871243 52.2749826,87.5534911 39.1216522,86.8978225" id="Fill-34"></path>
            </g>
        </g>
    </g>
</svg>