<?xml version="1.0" encoding="UTF-8"?>
<svg width="89px" height="114px" viewBox="0 0 89 114" version="1.1" xmlns="http://www.w3.org/2000/svg" xmlns:xlink="http://www.w3.org/1999/xlink">
    <title>icon/nutrition</title>
    <g id="home" stroke="none" stroke-width="1" fill="none" fill-rule="evenodd">
        <g id="Desktop-HD" transform="translate(-207.000000, -1494.000000)" fill="#FF5353">
            <g id="Group-8" transform="translate(207.000000, 1494.000000)">
                <path d="M16.3752581,54.6224693 C17.1127802,54.619249 17.8712434,55.0327405 18.2553831,55.6420286 L22.1465155,53.2634862 C21.252589,51.845893 19.7978317,50.8121642 18.1788169,50.363893 L20.5320817,44.8055879 C21.9285964,44.8957574 23.3028611,45.6782998 24.0397287,46.8466388 L27.9315155,44.4674523 C26.6855155,42.4940286 24.6221552,41.0667744 22.3454567,40.521893 L24.5285743,35.3661303 C26.0455008,35.3558252 28.4013831,36.5711812 29.2010743,37.8380625 L33.0922067,35.4595201 C31.7676772,33.3605032 29.0139125,31.6163676 26.3556919,31.0508761 L27.8183022,27.5967405 C29.1323611,24.495554 31.7630964,22.1704693 35.0377728,21.2198252 C36.0939934,20.9126049 37.1731184,20.761249 38.2443905,20.761249 C40.4942581,20.761249 42.7120596,21.4272151 44.6177067,22.7159947 C47.4323317,24.618571 49.2025155,27.6308761 49.4754052,30.9800286 C49.7482949,34.3291812 48.4878978,37.5804354 46.0174934,39.9003676 L7.16114048,76.384232 L16.3752581,54.6224693 Z M3.42248606,81.7402998 C4.12794195,82.21691 4.92959636,82.4513506 5.72601548,82.4513506 C6.73577283,82.4513506 7.73636842,82.074571 8.52100812,81.3377574 L49.1796111,43.1619269 C52.6532287,39.9010117 54.4253758,35.3294184 54.0418905,30.6193506 C53.7618022,27.1871134 52.3593978,24.0099269 50.0892434,21.5012829 C50.1546846,21.4233506 50.2325596,21.3589439 50.3045449,21.2880964 L50.3228684,21.2829439 C50.322214,21.2790795 50.3215596,21.2765032 50.3209052,21.2726388 C50.7233684,20.8784693 51.2115596,20.5757574 51.7723905,20.4147405 C52.6558464,20.1622659 53.5864199,20.2620964 54.3920008,20.6981303 C55.1982361,21.1335201 55.7839346,21.8516557 56.0411184,22.7211473 C56.2976478,23.5899947 56.196214,24.5058591 55.7531772,25.2993506 L59.7693022,27.4692151 C60.8000008,25.6194523 61.0382067,23.4856557 60.4387655,21.4607066 C59.8399787,19.4351134 58.4755302,17.7611812 56.596714,16.7461303 C55.0516478,15.9114184 53.3115669,15.6145032 51.5970081,15.859249 C52.3378022,15.0380625 53.2991331,14.4371473 54.3991993,14.1325032 C55.9135081,13.7132151 57.5043831,13.8993506 58.8760302,14.6574184 C60.2483317,15.4154862 61.2384567,16.6533845 61.6644787,18.1444015 L66.0739052,16.923893 C65.3174052,14.2741981 63.5570375,12.0727744 61.1173905,10.7260286 C59.2994346,9.72192692 57.2661772,9.28331675 55.2329199,9.43338455 L60.2352434,2.75246929 L56.5469787,0.0782997993 L51.5335302,6.77467268 C49.7482949,1.95511336 44.5404861,-0.921937489 39.3352949,0.268299799 L40.3712287,4.6601981 C43.5346552,3.93755404 46.7072434,5.88199471 47.4421478,8.99606251 C47.7582287,10.3337913 47.5704125,11.6715201 47.0063096,12.8218252 L46.6352581,13.3171134 C46.3041258,11.7604015 45.5083611,10.3389439 44.3114419,9.22084217 C42.7565596,7.76911336 40.7239567,6.99880827 38.5781405,7.0541981 C36.4349419,7.10894387 34.4422581,7.9822998 32.967214,9.51260488 L36.2896625,12.6157235 C36.9231331,11.9594184 37.7777949,11.5852151 38.6972434,11.5613845 C39.6108022,11.5388422 40.4909861,11.8679608 41.1578317,12.4907744 C41.8246772,13.114232 42.2055449,13.9553845 42.2291037,14.8609439 C42.2461184,15.4972829 42.0759714,16.1078591 41.7585817,16.6450117 C39.1442067,16.0569778 36.3924052,16.125249 33.7407287,16.895554 C29.1362875,18.2326388 25.4368978,21.5012829 23.5901478,25.8622659 L1.97492724,76.9117235 C1.22889783,78.673893 1.82441253,80.659554 3.42248606,81.7402998 L3.42248606,81.7402998 Z" id="Fill-1"></path>
                <path d="M83.7869993,92.2085913 C82.9388817,96.5972693 80.7452934,100.442998 77.6106611,103.036659 C74.6108375,105.518252 71.1051537,106.5391 67.7401684,105.907913 C67.2807714,105.822252 66.8266096,105.705676 66.3894625,105.561405 C64.7305287,105.0191 62.9786684,104.746659 61.1927787,104.746659 C59.7439111,104.746659 58.2727934,104.92571 56.8114919,105.2851 C56.6289111,105.330185 56.4437125,105.370117 56.2604772,105.404896 C49.1365508,106.758083 41.9157714,100.636218 40.171764,91.7525913 C38.4271022,82.8689642 42.8064258,74.5385913 49.9336243,73.1828286 C53.6029111,72.4859473 57.5097493,73.7914727 60.6496169,76.7702862 L62.1776684,78.2194388 L63.7619993,76.8301845 C66.838389,74.1347608 70.4644846,73.0108625 73.969514,73.6678117 L73.9701684,73.6678117 C77.3358081,74.2970659 80.2165287,76.5133032 82.0816022,79.9049642 C84.0297861,83.4499134 84.6351169,87.8199134 83.7869993,92.2085913 M67.6511684,61.0015744 C68.9475581,59.5279473 71.2746464,58.9218795 73.057264,58.708049 C73.0978375,60.4773032 72.8223302,62.8300829 71.5265949,64.3030659 L71.5259405,64.3030659 C70.2295508,65.7773371 67.9031169,66.3821167 66.1198449,66.5959473 C66.0792714,64.826693 66.3547787,62.4752015 67.6511684,61.0015744 M86.1101611,77.7602184 C83.5782419,73.1532015 79.5706243,70.1267269 74.826139,69.2385574 C74.1907052,69.1194049 73.5500361,69.0479134 72.9080581,69.0112015 C73.6612861,68.5352354 74.3706684,67.9581506 74.9897419,67.2541845 L74.9897419,67.2541845 C78.7342861,62.9975405 77.4254625,56.2122862 77.3678743,55.9263201 L77.0216905,54.2015066 L75.2384184,54.1119812 C74.9386978,54.091371 67.9319111,53.7938117 64.1873669,58.0504557 C63.4576978,58.8800151 62.922389,59.8061845 62.5297419,60.7613371 C61.2641096,58.7602184 59.5436611,57.0527947 57.4770287,55.8148964 L55.0949699,59.6657778 C57.2133008,60.9345913 58.8905581,62.9872354 59.696139,65.2962184 C60.2981978,67.021032 60.4264625,68.9261845 60.0868228,70.7308625 C56.6426537,68.7632354 52.7947125,68.047032 49.0639111,68.7561506 C39.4571464,70.5840151 33.4503008,81.2839134 35.6739919,92.6079134 C37.8970287,103.932557 47.5221169,111.661371 57.1328081,109.83093 C57.3991537,109.780049 57.6628817,109.722727 57.9233375,109.658964 C60.3394258,109.065778 62.766639,109.126964 64.9419037,109.839303 C65.5707934,110.045405 66.2238964,110.212863 66.8822346,110.336524 C67.8278596,110.513642 68.7767567,110.601235 69.7236905,110.601235 C73.5310581,110.601235 77.295889,109.186863 80.5581317,106.487574 C84.4976905,103.228591 87.2422934,98.456693 88.287389,93.0516761 C89.3324846,87.645371 88.5589699,82.2152354 86.1101611,77.7602184" id="Fill-3"></path>
                <path d="M72.6623265,85.0936388 C73.6354368,86.4951303 73.9796574,88.4080117 73.6053339,90.3421473 C73.255878,92.1506896 72.3076353,93.7460456 71.0047015,94.7179439 L73.7715544,98.310554 C75.9671059,96.6733337 77.5468559,94.0751642 78.1057236,91.185232 C78.7058192,88.0808252 78.0998339,84.9332659 76.4435177,82.5489269 L72.6623265,85.0936388 Z" id="Fill-5"></path>
                <path d="M24.5240589,107.17312 L24.5240589,107.17312 C24.1759118,107.964679 23.5358971,108.575256 22.7211544,108.892137 C21.9070662,109.210951 21.0157574,109.196781 20.2114853,108.853493 C19.4072133,108.510849 18.7861765,107.880951 18.4642059,107.079086 C18.1415809,106.277222 18.1553236,105.400646 18.5034706,104.609086 C18.8516177,103.817527 19.4916324,103.206951 20.306375,102.890069 C20.6970589,102.736781 21.1060662,102.660781 21.5144192,102.660781 C21.9568015,102.660781 22.397875,102.750307 22.8166986,102.928069 C23.6203162,103.270713 24.2406986,103.900612 24.5633236,104.702476 C24.8859486,105.50434 24.8722059,106.381561 24.5240589,107.17312 M10.8749927,103.494205 C10.5275,104.285764 9.88683092,104.89634 9.07274268,105.213222 C8.25865445,105.532035 7.36669121,105.517866 6.56241915,105.174578 C5.75814709,104.831934 5.13776474,104.202035 4.81513974,103.400815 C4.49316915,102.598307 4.5069118,101.72173 4.85505886,100.930171 C5.20255151,100.138612 5.84322062,99.5280354 6.65730886,99.211154 C7.04864709,99.0578659 7.45700003,98.9818659 7.86535298,98.9818659 C8.30773533,98.9818659 8.74946327,99.0713913 9.16763239,99.249154 C9.97190445,99.5917981 10.5922868,100.221696 10.9149118,101.022917 C11.2368824,101.824781 11.2231397,102.702646 10.8749927,103.494205 M13.8735074,94.2222049 C14.221,93.4306456 14.8616692,92.8200693 15.6757574,92.5031879 C16.0670956,92.3498998 16.476103,92.2738998 16.8844559,92.2738998 C17.3261839,92.2738998 17.7679118,92.3634252 18.1860809,92.5411879 C18.990353,92.883832 19.6107353,93.5137303 19.9333603,94.3155947 C20.2559853,95.1174591 20.2422427,95.9946795 19.8940956,96.7862388 L19.8934412,96.7862388 C19.5459486,97.5777981 18.9059339,98.1883744 18.0911912,98.5052557 C17.277103,98.8240693 16.3851397,98.8092557 15.5808677,98.4666117 C14.7765956,98.1239676 14.1562133,97.4940693 13.8342427,96.692849 C13.5116177,95.8903405 13.5253603,95.0137642 13.8735074,94.2222049 M24.6353089,98.7905778 C24.456,98.7145778 24.2740736,98.6521032 24.0914927,98.5889845 C24.0934559,98.5844761 24.0960736,98.5806117 24.0980368,98.5761032 C24.9317574,96.6799676 24.9651324,94.5770862 24.1922721,92.655832 C23.4194118,90.7345778 21.9325883,89.2242388 20.0053456,88.4036964 C18.078103,87.58251 15.9414486,87.5490184 13.9893383,88.3109506 C12.037228,89.0722388 10.5032868,90.5349167 9.66956621,92.4316964 C9.36461033,93.1247134 9.16959562,93.8454252 9.07863239,94.5738659 C7.70633092,94.3600354 6.29672798,94.5017303 4.97088974,95.0189167 C3.01877945,95.7802049 1.48418386,97.2428829 0.651117682,99.1396625 C-0.183257318,101.036442 -0.216632318,103.138679 0.556227976,105.060578 C1.32908827,106.981188 2.8159118,108.491527 4.74315445,109.312069 C5.74505886,109.739086 6.80324268,109.952917 7.86338974,109.952917 C8.84173533,109.952917 9.82204415,109.770646 10.7591618,109.405459 C11.9429927,108.943663 12.9704192,108.220374 13.783853,107.301934 C13.876125,107.788205 14.0155147,108.269324 14.2046397,108.739493 C14.9781544,110.660103 16.464978,112.170442 18.3915662,112.990985 C19.394125,113.418001 20.4523089,113.631832 21.5118015,113.631832 C22.4908015,113.631832 23.4704559,113.449561 24.4075736,113.084374 C26.3596839,112.323086 27.8942794,110.860408 28.728,108.962985 C29.5617206,107.066849 29.59575,104.963968 28.8222353,103.042713 C28.049375,101.121459 26.5625515,99.6111201 24.6353089,98.7905778" id="Fill-7"></path>
            </g>
        </g>
    </g>
</svg>