<?xml version="1.0" encoding="UTF-8"?>
<svg width="85px" height="114px" viewBox="0 0 85 114" version="1.1" xmlns="http://www.w3.org/2000/svg" xmlns:xlink="http://www.w3.org/1999/xlink">
    <title>icon/seat-belt</title>
    <defs>
        <polygon id="path-1" points="0.19562782 0.554396648 47.0817556 0.554396648 47.0817556 57.9553073 0.19562782 57.9553073"></polygon>
    </defs>
    <g id="home" stroke="none" stroke-width="1" fill="none" fill-rule="evenodd">
        <g id="Desktop-HD" transform="translate(-679.000000, -1490.000000)">
            <g id="Group-8" transform="translate(679.000000, 1490.000000)">
                <g id="Group-19" transform="translate(3.134327, 55.613722)">
                    <mask id="mask-2" fill="white">
                        <use xlink:href="#path-1"></use>
                    </mask>
                    <g id="Clip-18"></g>
                    <path d="M25.8138609,7.52368156 L23.8281842,11.1086313 C22.8113797,12.9447318 22.5729962,15.0648771 23.1564925,17.0799385 C23.7399887,19.0943631 25.0763421,20.7623296 26.9188609,21.7755922 C28.1005526,22.4252011 29.3998383,22.7563743 30.7138233,22.7563743 C31.4475075,22.7563743 32.1856654,22.6532011 32.9104023,22.4449441 C34.9325075,21.8634804 36.6056654,20.5317821 37.6224699,18.6956816 L39.6081466,15.1107318 L41.003297,15.8775251 L38.9032218,19.6681844 C36.3391617,24.2963296 30.4748008,25.9834022 25.8304774,23.4295475 C21.1861541,20.874419 19.4931842,15.030486 22.0566053,10.4023408 L24.1560414,6.61168156 L25.8138609,7.52368156 Z M35.687282,12.9625642 L33.7054398,16.5411453 C33.2657406,17.3346872 32.5429211,17.910419 31.6692744,18.1613464 C30.7949887,18.4129106 29.8759662,18.3103743 29.0796504,17.8722067 C28.2839737,17.434676 27.7068684,16.7143743 27.4544248,15.8431341 C27.2019812,14.9725307 27.305515,14.0560726 27.7445752,13.2631676 L29.7270564,9.68458659 L35.687282,12.9625642 Z M17.1719812,51.8977039 L6.27344737,45.9034693 L18.9218308,23.0678045 C20.1175827,24.7822626 21.7134098,26.257257 23.6690489,27.332933 C25.5908158,28.3895028 27.6864173,28.9696927 29.8171692,29.0671341 L17.1719812,51.8977039 Z M18.1395752,8.24780447 C16.4504398,11.2977821 16.026718,14.7063184 16.686906,17.8766648 L0.19562782,47.6523184 L18.9269436,57.9556257 L35.4188609,28.1793352 C38.5715301,27.0081285 41.1777707,24.7886313 42.8202519,21.8227207 L47.0817556,14.128676 L22.4010789,0.554396648 L18.1395752,8.24780447 Z" id="Fill-17" fill="#FFE85E" mask="url(#mask-2)"></path>
                </g>
                <path d="M39.0164699,41.0540112 L41.1165451,37.263352 C42.358312,35.0209274 44.4021466,33.3949944 46.8709812,32.6842458 C49.3398158,31.9754078 51.9390263,32.2639106 54.1886504,33.5026257 C56.4389135,34.740067 58.0705301,36.7761453 58.7837632,39.2370168 C59.4963571,41.6978883 59.2049286,44.2867709 57.9631617,46.5291955 L55.8630865,50.3198547 L54.3548158,49.4900112 L56.2676353,46.0375307 C58.3664323,42.2481453 56.9795902,37.4626927 53.1769586,35.3705698 C51.3350789,34.3579441 49.2075226,34.1197542 47.1847782,34.7012179 C45.163312,35.2833184 43.4901541,36.6143799 42.4733496,38.4504804 L40.5611692,41.9029609 L40.5183496,41.8793966 L40.5183496,41.8800335 L39.0164699,41.0540112 Z M62.280906,6.05664804 L73.1788008,12.0515196 L61.0960188,33.8681899 C59.8766203,32.1225251 58.2737632,30.6570838 56.350718,29.5992402 C54.4276729,28.5420335 52.329515,27.9713966 50.197485,27.8739553 L62.280906,6.05664804 Z M46.2983496,54.8276313 L40.2869962,51.5222682 L42.2030113,48.063419 L48.2137256,51.369419 L46.2983496,54.8276313 Z M52.3506053,43.8829944 L50.4384248,47.3361117 L50.3988008,47.3144581 L44.4775602,44.0574972 L46.3903797,40.6050168 C46.8300789,39.8114749 47.5522594,39.2363799 48.4265451,38.9848156 C49.3001917,38.7326145 50.2185752,38.8364246 51.014891,39.2739553 C52.6586504,40.177676 53.257485,42.2455978 52.3506053,43.8829944 L52.3506053,43.8829944 Z M34.2091767,53.2711173 L48.053312,60.8855531 L52.2004173,53.3978547 L57.6180489,56.3777765 L61.8795526,48.683095 C63.5226729,45.7178212 64.0179737,42.3379441 63.3328609,39.0555084 L79.2578985,10.3026704 L60.5259436,3.16767097e-14 L44.6002669,28.752838 C41.4488759,29.9234078 38.8426353,32.142905 37.2001541,35.1088156 L32.9380113,42.8028603 L38.356282,45.783419 L34.2091767,53.2711173 Z" id="Fill-20" fill="#FFE85E"></path>
                <polygon id="Fill-22" fill="#FFE85E" points="28.7378609 36.5318413 22.1954173 21.3188916 18.0834624 23.0753832 24.625906 38.288333"></polygon>
                <polygon id="Fill-24" fill="#FFE85E" points="17.5061654 50.8253397 0.662105263 53.6759765 1.41048872 58.0703899 18.255188 55.2197531"></polygon>
                <polygon id="Fill-26" fill="#FFE85E" points="19.197218 40.7069162 1.95308271 32.3677207 0 36.3781006 17.2441353 44.7172961"></polygon>
                <polygon id="Fill-28" fill="#FFE85E" points="56.1497857 75.0426335 62.6922293 90.2555832 66.8041842 88.4990916 60.2617406 73.2861419"></polygon>
                <polygon id="Fill-30" fill="#FFE85E" points="67.3814173 60.7491352 84.2254774 57.8984983 83.477094 53.5040849 66.6323947 56.3547218"></polygon>
                <polygon id="Fill-32" fill="#FFE85E" points="67.6435113 66.8566056 65.6897895 70.8669855 82.9339248 79.2068179 84.8870075 75.196438"></polygon>
            </g>
        </g>
    </g>
</svg>