<?xml version="1.0" encoding="UTF-8"?>
<svg width="101px" height="118px" viewBox="0 0 101 118" version="1.1" xmlns="http://www.w3.org/2000/svg" xmlns:xlink="http://www.w3.org/1999/xlink">
    <title>icon/sports</title>
    <defs>
        <polygon id="path-1" points="0.210526329 0.582582857 40.9405018 0.582582857 40.9405018 118.355146 0.210526329 118.355146"></polygon>
        <polygon id="path-3" points="0 0.453727036 67.4420789 0.453727036 67.4420789 71.4742183 0 71.4742183"></polygon>
    </defs>
    <g id="home" stroke="none" stroke-width="1" fill="none" fill-rule="evenodd">
        <g id="Desktop-HD" transform="translate(-436.000000, -1490.000000)">
            <g id="Group" transform="translate(423.000000, 1490.000000)">
                <g id="Group-11" transform="translate(13.411765, -0.674286)">
                    <g id="Group-3" transform="translate(59.682353, 0.091703)">
                        <mask id="mask-2" fill="white">
                            <use xlink:href="#path-1"></use>
                        </mask>
                        <g id="Clip-2"></g>
                        <path d="M36.1410176,111.673649 C36.0739588,111.780186 35.9472176,111.916392 35.7265941,111.966289 L28.3286647,113.618289 C27.9732529,113.696506 27.6185118,113.471295 27.5387118,113.112575 L27.4039235,112.501672 C27.3247941,112.142952 27.5501118,111.786255 27.9068647,111.707363 L35.3041235,110.055363 C35.3524059,110.044575 35.4006882,110.039181 35.4476294,110.039181 C35.7507353,110.039181 36.0256765,110.250906 36.0940765,110.561078 L36.2288647,111.171981 C36.2784882,111.394495 36.2087471,111.567786 36.1410176,111.673649 M5.61651176,7.55988914 C6.29447647,6.46012914 7.3587,5.70020914 8.61471176,5.41970629 C9.87005294,5.140552 11.1542294,5.37452914 12.2311941,6.08252914 C13.3074882,6.78985486 14.0370882,7.878152 14.2778294,9.10467771 L31.4261118,106.085843 L29.7127588,106.468838 L5.04584118,11.2111463 C4.7367,9.95562629 4.93921765,8.65897486 5.61651176,7.55988914 M40.8109941,110.148415 L40.6762059,109.537512 C40.1692412,107.242243 38.2661118,105.620586 36.0652412,105.360986 L18.8914765,8.23552343 C18.3965824,5.70830057 16.9434176,3.540472 14.7988765,2.13121486 C12.6550059,0.721957714 10.0953706,0.252654857 7.59675882,0.812312 C5.09613529,1.37129486 2.97573529,2.884392 1.62651176,5.07312343 C0.277288235,7.26252914 -0.126405882,9.84504343 0.4959,12.3729406 L25.2064059,107.799878 C23.3435118,108.977855 22.3175118,111.244129 22.8217941,113.525238 L22.9565824,114.136141 C23.5104882,116.643809 25.7294647,118.355146 28.1844882,118.355146 C28.5680647,118.355146 28.9576765,118.313341 29.3466176,118.225683 L36.7438765,116.573683 C38.1407118,116.262163 39.3330176,115.422003 40.1015118,114.208289 C40.8693353,112.993901 41.1214765,111.552278 40.8109941,110.148415" id="Fill-1" fill="#FFA24A" mask="url(#mask-2)"></path>
                    </g>
                    <path d="M47.0944059,23.7693806 C47.0944059,24.3088091 47.0387471,24.8340777 46.9475471,25.3472091 C44.2799471,22.923152 42.5840294,19.4195634 42.2735471,15.814832 C45.1336059,17.3090491 47.0944059,20.3109691 47.0944059,23.7693806 M38.1789353,32.7340091 C37.6029,32.7340091 37.0409471,32.674672 36.4950882,32.5688091 C36.9189,30.0604663 37.1784176,27.0592206 36.5219118,24.0357234 C35.8942412,21.1470834 34.4430882,18.6293006 32.4755824,16.886272 C33.8683941,15.7177349 35.6213118,14.9753463 37.5385235,14.8371177 C37.6210059,20.5368549 40.3603588,26.2109691 44.8331824,29.7145577 C43.1989588,31.5621006 40.8250765,32.7340091 38.1789353,32.7340091 M29.7717706,20.8126377 C30.7950882,21.875312 31.5669353,23.3445806 31.9364294,25.042432 C32.3146412,26.7854606 32.2777588,28.6100777 32.0832882,30.2937691 C30.3525,28.657952 29.2634647,26.3411063 29.2634647,23.7693806 C29.2634647,22.7323291 29.4485471,21.7397806 29.7717706,20.8126377 M38.1789353,37.4540091 C45.6834882,37.4540091 51.7885235,31.315312 51.7885235,23.7693806 C51.7885235,16.2234491 45.6834882,10.084752 38.1789353,10.084752 C30.6743824,10.084752 24.5693471,16.2234491 24.5693471,23.7693806 C24.5693471,31.315312 30.6743824,37.4540091 38.1789353,37.4540091" id="Fill-4" fill="#FFA24A"></path>
                    <g id="Group-8" transform="translate(0.000000, 44.594560)">
                        <mask id="mask-4" fill="white">
                            <use xlink:href="#path-3"></use>
                        </mask>
                        <g id="Clip-7"></g>
                        <path d="M62.3777824,28.8694754 C56.6113941,29.720424 52.0500529,30.4479783 50.1522882,31.4216469 C47.7656647,32.646824 45.6808059,34.7128354 44.1237,37.3964926 C43.5423,38.3984811 42.6175588,39.0835554 41.5191353,39.3269726 C40.4341235,39.566344 39.3256412,39.339784 38.3975471,38.6870754 C35.0694176,36.3493269 31.9672765,35.5995211 29.1803118,36.4619326 C23.3676529,38.2568811 19.4842765,43.9849383 19.9463118,50.0818297 L19.9644176,50.3063669 C20.0455588,51.1836126 19.6586294,51.9833154 18.9297,52.4452011 C18.5984294,52.6555783 17.7192882,53.0783554 16.7020059,52.4688011 C10.4890059,48.7440469 6.36891176,43.0038526 5.10082941,36.3061726 C3.84079412,29.6489497 5.54945294,22.8211326 9.91162941,17.0809383 C14.3334882,11.2618526 20.9367706,7.25996686 28.5050294,5.81160114 C30.7535118,5.38140686 32.9302412,5.16968114 35.0291824,5.16968114 C48.3155471,5.16968114 58.4058882,13.6548926 62.6647941,28.8269954 L62.3777824,28.8694754 Z M24.6229941,48.6307669 C24.8167941,45.1399897 27.1752529,42.0187211 30.5583706,40.9735783 C32.2214294,40.4617954 34.2781235,41.5514411 35.7091588,42.5561269 C36.1718647,42.8818069 36.6587118,43.1521954 37.1589706,43.3787554 L37.0275353,55.0027669 L24.6229941,48.6307669 Z M27.6272294,1.17453829 C18.9223235,2.84069829 11.3057824,7.47169257 6.18181765,14.215224 C0.998170588,21.0362983 -1.02365294,29.1951554 0.489194118,37.1888126 C2.01142941,45.2310183 6.91611176,52.0972697 14.2986176,56.5226069 C15.3843,57.1739669 16.5933706,57.4982983 17.8004294,57.4982983 C19.0611353,57.4982983 20.3198294,57.1442983 21.4343471,56.4376469 C22.5515471,55.7289726 23.4159353,54.7391211 23.9698412,53.5948583 L37.0805118,60.329624 L44.2665353,71.4742183 L48.2055706,68.9065383 L41.6794059,58.786184 L41.8463824,44.0510183 C42.0730412,44.0186526 42.3003706,43.9862869 42.5270294,43.9363897 C44.8868294,43.4151669 46.9462059,41.898024 48.1780765,39.7753726 C49.2811941,37.8738869 50.7021706,36.4390069 52.2867706,35.6258183 C53.6460529,34.9279326 60.0039,33.9900011 63.0591,33.5395783 L63.6941471,33.4458526 C64.9360765,33.2617726 66.0418765,32.5490526 66.7292294,31.490424 C67.4145706,30.4344926 67.6177588,29.1331211 67.2864882,27.9200811 C61.7896765,7.79265257 46.5921353,-2.45379314 27.6272294,1.17453829 L27.6272294,1.17453829 Z" id="Fill-6" fill="#FFA24A" mask="url(#mask-4)"></path>
                    </g>
                    <path d="M20.5474941,59.0149628 C14.1064941,63.1206885 9.83015294,70.4272485 9.38823529,78.0837628 L14.0749765,78.3568485 C14.4303882,72.1918542 17.8738588,66.3073628 23.0608588,63.0013399 C28.2478588,59.6953171 35.0094,59.0736256 40.7067176,61.3817056 L42.4603059,57.0035685 C35.3856,54.1385285 26.9898353,54.9092371 20.5474941,59.0149628" id="Fill-9" fill="#FFA24A"></path>
                </g>
            </g>
        </g>
    </g>
</svg>