<?xml version="1.0" encoding="UTF-8"?>
<svg width="81px" height="114px" viewBox="0 0 81 114" version="1.1" xmlns="http://www.w3.org/2000/svg" xmlns:xlink="http://www.w3.org/1999/xlink">
    <title>icon/vaccination</title>
    <g id="home" stroke="none" stroke-width="1" fill="none" fill-rule="evenodd">
        <g id="Desktop-HD" transform="translate(-1148.000000, -1490.000000)" fill="#68B1F9">
            <g id="Group-8" transform="translate(1148.000000, 1490.000000)">
                <path d="M21.8283765,28.8824302 L34.0185525,20.6294817 L37.6680885,26.0780302 L31.5736485,30.2041788 L34.1073285,33.9870245 L40.2017685,29.8602245 L42.4937445,33.2802245 L36.3986565,37.4070245 L38.9329845,41.1898702 L45.0280725,37.0630702 L47.2455285,40.3729788 L41.1497925,44.4991274 L43.6841205,48.2813217 L49.7792085,44.1545217 L52.1800485,47.7380302 L46.0849605,51.8648302 L48.6186405,55.647676 L54.7137285,51.520876 L57.0718005,55.0405445 L50.9767125,59.1666931 L53.5110405,62.9495388 L59.6054805,58.8227388 L62.4502005,63.0687502 L58.8648165,70.941916 L50.2606725,71.3216988 L21.8283765,28.8824302 Z M17.7019125,15.9646017 L23.6615685,11.9296531 L28.3686405,18.9559617 L24.7929765,21.3766702 L22.4089845,22.9909102 L17.7019125,15.9646017 Z M11.1162885,13.7862245 C10.8259845,13.353676 10.9400325,12.7647845 11.3703045,12.473596 L22.8230565,4.71899024 C23.2539765,4.42780167 23.8397685,4.54375596 24.1294245,4.9756531 C24.4190805,5.40755024 24.3043845,5.9970931 23.8741125,6.28828167 L12.4207125,14.042236 C11.9917365,14.3334245 11.4046485,14.2174702 11.1162885,13.7862245 L11.1162885,13.7862245 Z M74.9442885,94.9424988 L63.4669125,71.7926817 L67.6329045,62.642716 L35.2465125,14.2995502 L32.1309285,16.408876 L27.3441525,9.26335596 C29.0490405,7.43219024 29.3432325,4.59456739 27.8910645,2.42791596 C26.2049685,-0.08985547 22.7938965,-0.758221184 20.2893765,0.937447387 L8.83662447,8.69140167 C6.33210447,10.3870702 5.66725647,13.8155388 7.35400047,16.3339617 C8.41088847,17.9097674 10.1429925,18.761836 11.9049045,18.761836 C12.5626245,18.761836 13.2216405,18.6282931 13.8540885,18.3840074 L18.6473445,25.537996 L15.5317605,27.6473217 L47.9194485,75.989836 L57.9193845,75.5481674 L74.9442885,94.9424988 Z" id="Fill-36"></path>
                <path d="M18.5497557,103.175839 L18.5251317,103.175839 L10.1127957,103.138708 C8.61656367,103.132845 7.21234767,102.540045 6.15934767,101.472354 C5.10634767,100.404662 4.52962767,98.9878051 4.53605366,97.484308 L4.54971567,94.3913251 L24.1640277,94.4779651 L24.1510677,97.5702965 C24.1374597,100.666537 21.6271077,103.175839 18.5497557,103.175839 L18.5497557,103.175839 Z M24.1841157,89.9173137 L4.56980367,89.8319765 L4.58405967,86.4530165 L4.61710767,78.9016565 L24.2314197,78.9876451 L24.2042037,85.3149708 L24.1841157,89.9173137 Z M10.5722277,64.2028222 L18.4039557,64.237348 L24.2625237,71.7965251 L24.2515077,74.4282965 L4.63719567,74.3410051 L4.64885967,71.7105365 L10.5722277,64.2028222 Z M7.20068367,56.5009822 C7.20327567,55.965508 7.63613967,55.532308 8.16749967,55.532308 L8.17073967,55.532308 L20.8812597,55.5883308 C21.2292357,55.5896337 21.4573317,55.769428 21.5623077,55.8762622 C21.6679317,55.9824451 21.8441877,56.2137022 21.8422596,56.5641708 L21.8351157,58.2324794 C21.8325237,58.7666508 21.3996597,59.1998508 20.8689477,59.1998508 L20.8650597,59.1998508 L8.15518767,59.143828 C7.80721167,59.1425251 7.57846767,58.9633822 7.47349167,58.856548 C7.36851567,58.7503651 7.19225967,58.5184565 7.19418773,58.167988 L7.20068367,56.5009822 Z M23.3268117,63.170308 C25.1211237,62.2641708 26.3613957,60.4056451 26.3711157,58.2526737 L26.3782437,56.5850165 C26.3853717,55.1069251 25.8190197,53.7148222 24.7835157,52.6653708 C23.7486597,51.6165708 22.3703637,51.0348451 20.9006997,51.0283308 L8.19082767,50.972308 L8.16749967,50.972308 C5.14457967,50.972308 2.67893967,53.4379651 2.66468367,56.4801365 L2.65820367,58.1477937 C2.65107567,59.6252337 3.21742767,61.0173365 4.25293167,62.0674394 C4.66959567,62.4895651 5.14393167,62.8315651 5.65585167,63.0960451 L0.119339674,70.1125822 L0.032507674,90.046948 L0.013715674,94.3711308 L1.55182533e-14,97.4634622 C-0.012204326,100.185782 1.03172367,102.749805 2.93813967,104.682594 C4.84455567,106.616034 7.38536367,107.686982 10.0927077,107.698708 L18.5050437,107.735839 L18.5497557,107.735839 C24.1193157,107.735839 28.6617957,103.193428 28.6870677,97.5904908 L28.7142837,91.3843308 L28.7875077,74.4478394 L28.7868597,74.4478394 L28.8050037,70.2389594 L23.3268117,63.170308 Z" id="Fill-38"></path>
                <path d="M76.2894717,107.741572 C76.1436717,108.967561 75.0939117,109.050292 74.6506797,109.031401 C74.2055037,109.010555 73.1687037,108.830109 73.1350077,107.590441 C73.1330637,107.516829 73.1337117,107.443218 73.1375997,107.364395 C73.1972157,106.064795 74.0214717,104.502669 74.8891437,103.220006 C75.6628557,104.573675 76.3685277,106.205503 76.3089117,107.510315 C76.3050237,107.585881 76.2998397,107.660795 76.2894717,107.741572 M76.7761197,97.9356177 L75.1606557,95.9787262 L73.4013357,97.8066348 C72.9315357,98.2939034 68.8089597,102.698863 68.6067837,107.151378 C68.5977117,107.342898 68.5957677,107.533766 68.6009517,107.717469 C68.6877837,110.966143 71.1443517,113.434406 74.4426717,113.586841 C74.5489437,113.591401 74.6545677,113.594006 74.7595437,113.594006 C77.9107677,113.594006 80.4243597,111.403252 80.7930717,108.286818 C80.8151037,108.101161 80.8313037,107.913549 80.8397277,107.723332 L80.8397277,107.720075 C81.0451437,103.244109 77.2141677,98.466532 76.7761197,97.9356177" id="Fill-40"></path>
            </g>
        </g>
    </g>
</svg>